<svg width="16" height="16" viewBox="0 0 16 16" fill="none" xmlns="http://www.w3.org/2000/svg">
<path d="M2.33324 5.33314C2.33338 4.70108 2.49689 4.07979 2.80792 3.52956C3.11895 2.97933 3.56694 2.51884 4.1084 2.19278C4.64987 1.86673 5.26642 1.68617 5.89824 1.66865C6.53005 1.65112 7.15567 1.79721 7.71437 2.09275C8.27308 2.38829 8.7459 2.82323 9.08696 3.35538C9.42802 3.88752 9.62572 4.49879 9.6609 5.12987C9.69607 5.76095 9.56751 6.3904 9.2877 6.95714C9.00788 7.52389 8.58632 8.00868 8.06391 8.36447C9.18891 8.77709 10.1647 9.51695 10.8657 10.4888C11.5666 11.4607 11.9607 12.6201 11.9972 13.8178C11.9957 13.9469 11.9443 14.0705 11.8538 14.1626C11.7633 14.2548 11.6407 14.3084 11.5116 14.3122C11.3825 14.3161 11.2569 14.2699 11.1611 14.1834C11.0652 14.0969 11.0065 13.9766 10.9972 13.8478C10.9575 12.5488 10.4136 11.3162 9.48069 10.4114C8.54778 9.50658 7.29921 9.00054 5.99958 9.00054C4.69994 9.00054 3.45137 9.50658 2.51846 10.4114C1.58555 11.3162 1.04161 12.5488 1.00191 13.8478C0.995236 13.9784 0.937696 14.1011 0.841617 14.1898C0.745538 14.2784 0.618563 14.3259 0.487893 14.3221C0.357224 14.3182 0.233252 14.2634 0.142539 14.1692C0.0518249 14.0751 0.00158354 13.9492 0.00257796 13.8185C0.0389455 12.6206 0.432983 11.4611 1.13397 10.4891C1.83495 9.51709 2.81081 8.77714 3.93591 8.36447C3.44196 8.02806 3.03773 7.57602 2.7584 7.04769C2.47907 6.51936 2.33312 5.93076 2.33324 5.33314ZM5.99991 2.66647C5.29267 2.66647 4.61439 2.94742 4.11429 3.44752C3.6142 3.94762 3.33324 4.62589 3.33324 5.33314C3.33324 6.04038 3.6142 6.71866 4.11429 7.21876C4.61439 7.71885 5.29267 7.9998 5.99991 7.9998C6.70715 7.9998 7.38543 7.71885 7.88553 7.21876C8.38563 6.71866 8.66658 6.04038 8.66658 5.33314C8.66658 4.62589 8.38563 3.94762 7.88553 3.44752C7.38543 2.94742 6.70715 2.66647 5.99991 2.66647ZM11.5266 5.33314C11.4284 5.33314 11.3319 5.33981 11.2372 5.35314C11.1712 5.36497 11.1033 5.36337 11.0379 5.34844C10.9724 5.3335 10.9106 5.30553 10.8562 5.2662C10.8018 5.22686 10.7559 5.17697 10.7211 5.1195C10.6864 5.06203 10.6636 4.99815 10.6541 4.93168C10.6446 4.86521 10.6486 4.7975 10.6659 4.73261C10.6831 4.66771 10.7132 4.60695 10.7545 4.55396C10.7957 4.50096 10.8472 4.45681 10.9058 4.42414C10.9645 4.39147 11.0291 4.37095 11.0959 4.36381C11.759 4.26794 12.4351 4.39527 13.0178 4.72575C13.6006 5.05624 14.0569 5.57112 14.315 6.18936C14.5731 6.8076 14.6182 7.4941 14.4434 8.14083C14.2686 8.78756 13.8837 9.3578 13.3492 9.7618C14.1348 10.1136 14.8019 10.6851 15.2698 11.4076C15.7378 12.13 15.9867 12.9724 15.9866 13.8331C15.9866 13.9657 15.9339 14.0929 15.8401 14.1867C15.7464 14.2805 15.6192 14.3331 15.4866 14.3331C15.354 14.3331 15.2268 14.2805 15.133 14.1867C15.0393 14.0929 14.9866 13.9657 14.9866 13.8331C14.9868 13.0892 14.7472 12.3649 14.3034 11.7678C13.8596 11.1708 13.2351 10.7326 12.5226 10.5185L12.1666 10.4118V9.29447L12.4399 9.15514C12.8451 8.9499 13.1693 8.61411 13.3601 8.20197C13.551 7.78983 13.5974 7.32539 13.4918 6.88364C13.3862 6.4419 13.1349 6.04861 12.7783 5.76729C12.4217 5.48597 11.9808 5.33302 11.5266 5.33314Z" fill="#707070"/>
</svg>
