<svg width="16" height="8" viewBox="0 0 16 8" fill="none" xmlns="http://www.w3.org/2000/svg">
<g clip-path="url(#clip0_14102_1418)">
<path d="M8 6.99999C7.93442 7.00079 7.86941 6.98786 7.80913 6.96202C7.74885 6.93619 7.69465 6.89803 7.65 6.84999L3.15 2.34999C2.95 2.14999 2.95 1.83999 3.15 1.63999C3.35 1.43999 3.66 1.43999 3.86 1.63999L8.01 5.78999L12.15 1.64999C12.35 1.44999 12.66 1.44999 12.86 1.64999C13.06 1.84999 13.06 2.15999 12.86 2.35999L8.36 6.85999C8.26 6.95999 8.13 7.00999 8.01 7.00999L8 6.99999Z" fill="black"/>
</g>
<defs>
<clipPath id="clip0_14102_1418">
<rect width="16" height="7" fill="white" transform="translate(0 0.5)"/>
</clipPath>
</defs>
</svg>
